# xmcd
#
# Track frame offsets:
# 150
# 18740
# 34700
# 53849
# 75069
# 96109
# 119749
# 135798
# 159407
# 173607
# 196107
#
# Disc length: 2836 seconds
#
# Revision: 0
# Processed by: cddbd v1.5.2PL0 Copyright (c) Steve Scherf et al.
# Submitted via: Audion 3.0.2 (http://www.panic.com/audion/)
#
DISCID=790b120b
DTITLE=ASA - asa
DYEAR=1900
DGENRE=
TTITLE0=Jailer
TTITLE1=360
TTITLE2=Bibanke
TTITLE3=Subway
TTITLE4=Fire On The Mountain
TTITLE5=Eye Adaba
TTITLE6=No One Knows
TTITLE7=Awe
TTITLE8=Peace
TTITLE9=SoBeautiful
TTITLE10=Iba
EXTD=
EXTT0=
EXTT1=
EXTT2=
EXTT3=
EXTT4=
EXTT5=
EXTT6=
EXTT7=
EXTT8=
EXTT9=
EXTT10=
PLAYORDER=
